# xmcd CD database file
#
# Track frame offsets:
#	150
#	18960
#	35124
#	68061
#	80198
#	106550
#	127262
#	166687
#	181091
#
# Disc length: 2617 seconds
#
# Revision: 0
# Processed by: cddbd v1.5.1PL0 Copyright (c) Steve Scherf et al.
# Submitted via: CDex 1.60beta1
#
DISCID=6d0a3709
DTITLE=Quincy Jones - You've Got It Bad Girl
DYEAR=1973
DGENRE=Jazz
TTITLE0=Summer In The City
TTITLE1=Eyes Of Love
TTITLE2=Tribute To A.F.-Ro Day Dreaming - First Time Ever I Saw Your Face
TTITLE3=Love Theme From "The Getaway"
TTITLE4=You've Got It Bad Girl
TTITLE5=Superstition
TTITLE6=Manteca
TTITLE7="Sanford and Son Theme" - Nbc-Tv
TTITLE8=Chump Change
EXTD=YEAR: 1973
EXTT0=
EXTT1=
EXTT2=
EXTT3=
EXTT4=
EXTT5=
EXTT6=
EXTT7=
EXTT8=
PLAYORDER=
